 http://www.imdb.com/title/tt0485601/
 
http://www.moviemeter.nl/film/49221

User Rating:7.7/10 - 122 votes

Alternatieve titel: Brendan and the Secret of Kells 

België / Ierland / Frankrijk
Animatie
80 minuten

Geregisseerd door Tomm Moore en Nora Twomey
Met de stemmen van Evan McGuire, Christen Mooney en Brendan Gleeson.

Ierland, negende eeuw. Brendan, een opgewekte en goedlachse weesjongen van 12 leeft in de abdij van Kells dat verscholen ligt in een verlaten groene vallei. Hij wordt er streng opgevoed door zijn oom, de abt Cellach, die de abdij met ijzeren hand leidt. Op een dag ontmoet hij de oude broeder Aidan. Deze ietwat vreemde man is een meester in het illustreren en houdt een buitengewoon, nog onvoltooid boek in bewaring. Enthousiast en begeesterd door deze ontmoeting laat Brendan zich meeslepen door de lokroep van de creativiteit en verbeelding. Hij heeft slechts nog één doel voor ogen: zelf meester illustrator worden en het waardevolle boek van Kells afwerken. Hij weet uiteindelijk te ontsnappen aan de sterke greep van zijn oom en waagt zich buiten de muren van Kells..

Info:

General
Complete name                    : The Secret of Kells-AC3-5,1-DVDRip-2009 Dutch.avi
Format                           : AVI
Format/Info                      : Audio Video Interleave
File size                        : 1.09 GiB
Duration                         : 1h 15mn
Overall bit rate                 : 2 061 Kbps
Writing application              : VirtualDubMod 1.5.4.1 (build 2178/release)
Writing library                  : VirtualDubMod build 2178/release

Video
ID                               : 0
Format                           : MPEG-4 Visual
Format profile                   : Simple@L3
Format settings, BVOP            : No
Format settings, QPel            : No
Format settings, GMC             : No warppoints
Format settings, Matrix          : Default (H.263)
Codec ID                         : XVID
Codec ID/Hint                    : XviD
Duration                         : 1h 15mn
Bit rate                         : 1 603 Kbps
Width                            : 704 pixels
Height                           : 400 pixels
Display aspect ratio             : 16:9
Frame rate                       : 25.000 fps
Resolution                       : 24 bits
Colorimetry                      : 4:2:0
Scan type                        : Progressive
Bits/(Pixel*Frame)               : 0.228
Stream size                      : 865 MiB (78%)
Writing library                  : XviD 1.1.2 (UTC 2006-11-01)

Audio
ID                               : 1
Format                           : AC-3
Format/Info                      : Audio Coding 3
Codec ID                         : 2000
Duration                         : 1h 15mn
Bit rate mode                    : Constant
Bit rate                         : 448 Kbps
Channel(s)                       : 6 channels
Channel positions                : Front: L C R, Surround: L R, LFE
Sampling rate                    : 48.0 KHz
Stream size                      : 242 MiB (22%)
Alignment                        : Split accross interleaves
Interleave, duration             : 40 ms (1.00 video frame)
Interleave, preload duration     : 500 ms
Language                         : Nederlands/Vlaams.

Veel plezier met deze film.